<svg width="35" height="42" viewBox="0 0 35 42" fill="none" xmlns="http://www.w3.org/2000/svg">
<path d="M12.2352 20.4024C12.8729 20.711 13.5403 20.9539 14.2272 21.1275C16.1724 21.7031 18.2453 21.6837 20.1794 21.0717C21.4977 20.5266 22.6904 19.7173 23.6839 18.6936C24.6775 17.6699 25.4508 16.4535 25.9563 15.1195C26.7502 13.2911 26.9155 11.2511 26.4264 9.31874C26.0942 8.11694 25.4606 7.01987 24.5858 6.13149C22.1953 4.03587 19.3985 3.39045 16.2272 3.08766C15.7454 3.03877 15.2612 3.01748 14.777 3.02392C13.2702 2.97679 11.7809 3.35808 10.4822 4.12352C8.17142 5.61356 7.02401 8.72909 7.07181 11.4144C7.05972 11.64 7.05972 11.866 7.07181 12.0916C7.20138 13.345 7.53232 14.5692 8.05189 15.7171C8.50419 16.8651 9.16619 17.9189 10.0041 18.8247C10.6481 19.4791 11.4036 20.0133 12.2352 20.4024Z" stroke="#231F20" stroke-width="5" stroke-linecap="round" stroke-linejoin="round"/>
<path d="M2.99194 38.2112C3.78876 34.5697 4.72103 30.8088 6.97601 27.8526C7.82204 26.7394 8.8167 25.7474 9.93218 24.9044C13.3744 22.2829 18.2429 21.008 22.0915 23C24.9441 24.4901 26.6892 27.4223 28.2907 30.2112C29.8923 33 31.478 35.8367 31.6692 38.9761" stroke="#231F20" stroke-width="5" stroke-linecap="round" stroke-linejoin="round"/>
</svg>
