<svg width="35" height="42" viewBox="0 0 35 42" fill="none" xmlns="http://www.w3.org/2000/svg">
<path d="M12.2349 20.4024C12.8726 20.711 13.5401 20.9539 14.2269 21.1275C16.1721 21.7031 18.2451 21.6837 20.1791 21.0717C21.4974 20.5266 22.6901 19.7173 23.6837 18.6936C24.6772 17.6699 25.4506 16.4535 25.956 15.1195C26.75 13.2911 26.9153 11.2511 26.4262 9.31874C26.094 8.11694 25.4604 7.01987 24.5855 6.13149C22.1951 4.03587 19.3983 3.39045 16.2269 3.08766C15.7452 3.03877 15.261 3.01748 14.7767 3.02392C13.2699 2.97679 11.7807 3.35808 10.4819 4.12352C8.17117 5.61356 7.02376 8.72909 7.07157 11.4144C7.05948 11.64 7.05948 11.866 7.07157 12.0916C7.20113 13.345 7.53208 14.5692 8.05165 15.7171C8.50395 16.8651 9.16595 17.9189 10.0038 18.8247C10.6478 19.4791 11.4033 20.0133 12.2349 20.4024Z" stroke="#019046" stroke-width="5" stroke-linecap="round" stroke-linejoin="round"/>
<path d="M2.99219 38.2112C3.789 34.5697 4.72127 30.8088 6.97625 27.8526C7.82229 26.7394 8.81694 25.7474 9.93243 24.9044C13.3747 22.2829 18.2432 21.008 22.0918 23C24.9444 24.4901 26.6894 27.4223 28.291 30.2112C29.8926 33 31.4782 35.8367 31.6695 38.9761" stroke="#019046" stroke-width="5" stroke-linecap="round" stroke-linejoin="round"/>
</svg>
