<svg width="23" height="20" viewBox="0 0 23 20" fill="none" xmlns="http://www.w3.org/2000/svg">
<g clip-path="url(#clip0)">
<path d="M22.2223 8.04468C22.1065 7.31842 21.47 6.75977 20.6598 6.81563L17.9977 7.0391C17.6505 7.0391 17.3612 7.20669 17.1297 7.37429C15.5672 7.65362 13.9468 7.87708 12.3264 8.10055C12.2107 5.86591 12.1528 3.57541 12.095 1.34077C12.095 0.558648 11.4005 -0.0558771 10.5903 -1.11682e-05C9.89588 -1.11682e-05 9.25931 0.67038 9.25931 1.4525C9.31718 3.79887 9.43292 6.20111 9.49079 8.60334C6.71301 9.05027 3.93523 9.44133 1.21533 9.83239C0.40514 9.94412 -0.115693 10.6704 4.7444e-05 11.3966C0.115788 12.067 0.752362 12.5698 1.44681 12.5698C1.50468 12.5698 1.56255 12.5698 1.67829 12.5698C4.34032 12.1788 7.00236 11.7877 9.6644 11.3966C9.78014 13.8547 9.89588 16.257 10.0116 18.7151C10.0695 19.3296 10.5325 19.8883 11.169 20C11.2848 20 11.3426 20 11.4584 20C11.9792 20 12.5 19.7207 12.7315 19.2179C13.0209 18.6033 13.1366 17.9329 13.0209 17.2626C12.963 17.0391 12.9051 16.8715 12.7894 16.7039C12.6737 14.8045 12.6158 12.8492 12.5 10.9497C15.3357 10.5028 18.1713 10.0559 21.007 9.55306C21.8172 9.44133 22.338 8.77094 22.2223 8.04468Z" fill="white"/>
</g>
<defs>
<clipPath id="clip0">
<rect width="22.2222" height="20" fill="white"/>
</clipPath>
</defs>
</svg>
