<svg width="69" height="72" viewBox="0 0 69 72" fill="none" xmlns="http://www.w3.org/2000/svg">
<rect x="9" y="12" width="60" height="60" rx="10" fill="#019046"/>
<path d="M50.1091 40.0468C49.9934 39.3207 49.3569 38.7621 48.5469 38.818L45.8853 39.0414C45.5382 39.0414 45.2489 39.209 45.0174 39.3765C43.4552 39.6558 41.8351 39.8792 40.215 40.1027C40.0993 37.8684 40.0414 35.5783 39.9836 33.3441C39.9836 32.5621 39.2893 31.9477 38.4792 32.0035C37.7849 32.0035 37.1484 32.6738 37.1484 33.4558C37.2063 35.8017 37.322 38.2036 37.3799 40.6054C34.6026 41.0522 31.8253 41.4432 29.1059 41.8342C28.2958 41.9459 27.7751 42.672 27.8908 43.3982C28.0065 44.0684 28.643 44.5711 29.3373 44.5711C29.3952 44.5711 29.453 44.5711 29.5688 44.5711C32.2303 44.1802 34.8919 43.7892 37.5535 43.3982C37.6692 45.8558 37.7849 48.2576 37.9006 50.7153C37.9585 51.3297 38.4214 51.8883 39.0578 52C39.1735 52 39.2314 52 39.3471 52C39.8679 52 40.3886 51.7207 40.62 51.218C40.9093 50.6036 41.0251 49.9333 40.9093 49.2631C40.8515 49.0396 40.7936 48.8721 40.6779 48.7045C40.5622 46.8054 40.5043 44.8504 40.3886 42.9513C43.2237 42.5045 46.0589 42.0576 48.894 41.5549C49.7041 41.4432 50.2248 40.7729 50.1091 40.0468Z" fill="white"/>
<path d="M58.9841 7.03624C58.5423 9.41832 57.2163 11.6553 55.3746 13.2113C53.6075 14.6961 51.4227 15.5323 49.1247 15.7055C47.8924 15.7837 46.6479 15.6473 45.4469 15.3018C45.2512 15.2371 45.0667 15.0613 45.0201 14.8544C44.5412 12.2449 46.5578 10.1785 48.2438 8.49451C49.104 7.64864 50.041 6.82173 51.138 6.30299C52.2483 5.76313 53.4841 5.53921 54.7143 5.3709C56.1591 5.19049 57.6195 5.07904 59.0765 5.11329C59.5826 5.10804 59.7835 5.67872 59.5853 6.08567C59.0686 7.08968 57.9096 7.33255 56.985 7.81246C56.026 8.30014 55.2326 9.04039 54.3891 9.71944C53.559 10.3774 52.65 10.9262 51.6698 11.4006C50.772 11.8382 49.8242 12.2147 48.913 12.6735C47.9195 13.1689 46.9627 13.7467 46.1714 14.577C45.9343 14.8116 45.5106 14.7802 45.2894 14.522C45.0471 14.2505 45.0941 13.8957 45.3445 13.6401C46.7512 12.1639 48.6813 11.4032 50.5192 10.5546C51.4037 10.138 52.2881 9.7215 53.0993 9.14031C54.0061 8.50134 54.8263 7.71884 55.7409 7.11436C56.246 6.78323 56.7745 6.55554 57.3163 6.30673C57.7969 6.10794 58.312 5.90138 58.5636 5.40994C58.7447 5.73148 58.9047 6.03965 59.0724 6.38232C57.9068 6.35492 56.7434 6.41761 55.5955 6.54927C54.4821 6.67316 53.3343 6.80482 52.2964 7.18345C51.2929 7.55432 50.4417 8.19888 49.6749 8.89689C48.8337 9.66602 48.0079 10.5041 47.3222 11.4013C46.6366 12.2984 46.0742 13.4214 46.2826 14.5882C46.1403 14.4391 45.9981 14.29 45.8558 14.1409C49.8635 15.2855 54.2277 13.6688 56.4798 10.1545C57.1478 9.09828 57.6122 7.94297 57.8388 6.69632C57.9068 6.35492 58.3051 6.19278 58.612 6.26859C58.9401 6.35777 59.0522 6.69484 58.9841 7.03624Z" fill="#7FD2F5"/>
<path d="M18.2348 14.0273C18.513 13.7746 18.7913 13.5219 19.0713 13.2951C19.3023 13.0715 19.5596 12.8722 19.7643 12.6245C20.3786 11.8814 20.6569 10.9011 20.9387 9.97254" stroke="#F0BAD6" stroke-width="2" stroke-miterlimit="10" stroke-linecap="round"/>
<path d="M13.8257 44.557C14.9263 46.2637 15.6989 48.2441 15.6423 50.2765C15.5622 52.317 14.5655 54.3871 12.8022 55.4016C11.7052 56.0504 10.3959 56.2438 9.12204 56.1601C6.38435 55.9797 3.75397 54.5172 2.17098 52.2643C1.67792 51.5365 1.25445 50.705 1.35233 49.8498C1.41836 48.9793 2.12488 48.123 3.01071 48.1572C3.89653 48.1913 4.50165 49.0123 5.22826 49.4994C5.99496 50.0255 6.96218 50.2165 7.87631 50.029C8.07329 49.9865 8.30919 49.9039 8.43304 49.7282C8.69606 49.3448 8.34102 48.86 8.0591 48.5085C7.60025 47.9542 7.25817 47.2795 7.382 46.5741C7.50584 45.8688 8.24774 45.2648 8.89177 45.516C9.59123 45.7743 9.7387 46.6496 10.1044 47.316C10.3721 47.7783 10.8286 48.1747 11.3594 48.2537C11.8902 48.3327 12.487 48.0708 12.7088 47.5695C12.8916 47.1083 12.7335 46.5811 12.5684 46.1093C12.4032 45.6375 12.2688 45.1019 12.4834 44.6561C12.6981 44.2102 13.4542 44.025 13.6665 44.4803" fill="#D786F3"/>
</svg>
