<svg width="15" height="18" viewBox="0 0 15 18" fill="none" xmlns="http://www.w3.org/2000/svg">
<path d="M13.2508 17.9998C12.803 17.9998 12.4191 17.8719 12.0353 17.552C11.2036 17.1042 10.4359 16.5284 9.73222 15.9526C9.2844 15.5688 8.83658 15.2489 8.38876 14.993C5.95773 13.4576 3.59068 12.3701 1.15965 11.6024C0.519907 11.4105 0.13606 10.8987 0.00811149 10.2589C-0.0558629 9.61918 0.264009 8.97944 0.775804 8.72354C3.20683 7.3161 5.70183 4.94905 7.94094 2.83789C8.83658 2.00623 9.60427 1.23854 10.4359 0.534817C11.0757 -0.0409526 12.0993 0.0230218 12.675 0.662766C13.2508 1.30251 13.1868 2.3261 12.5471 2.90187C11.7794 3.54161 11.0117 4.30931 10.18 5.14097C8.58068 6.61238 6.91735 8.27572 5.12606 9.61918C6.7894 10.3229 8.45273 11.2185 10.18 12.3061C10.7558 12.6899 11.2676 13.0738 11.7794 13.4576C12.5471 14.0334 13.2508 14.6092 14.0185 14.9291C14.6582 15.2489 15.1061 15.9526 14.9781 16.6564C14.8502 17.3601 14.2744 17.9358 13.5707 17.9998C13.3788 17.9998 13.3148 17.9998 13.2508 17.9998Z" fill="black"/>
</svg>
