<svg width="155" height="45" viewBox="0 0 155 45" fill="none" xmlns="http://www.w3.org/2000/svg">
<path d="M5.33525 10.7015C4.95359 7.6804 7.33821 5.02257 10.3829 5.07559L128.838 7.13832C131.884 7.19136 134.175 9.93217 133.686 12.9389L129.542 38.4643C129.155 40.8472 127.121 42.6134 124.707 42.662L14.1624 44.8847C11.6055 44.9361 9.4219 43.0497 9.10135 40.5124L5.33525 10.7015Z" fill="#F0BAD6" fill-opacity="0.2"/>
<path d="M140.609 4.53076C137.762 3.97571 134.891 4.64974 132.3 5.80731C131.642 6.09323 131.002 6.41672 130.387 6.76363C129.757 7.1059 129.047 7.45329 128.522 7.95512C127.997 8.45695 127.686 9.21665 127.973 9.92146C128.261 10.6263 129.054 10.8388 129.752 10.9105C131.29 11.1003 132.894 11.2333 134.243 12.0975C134.399 12.1955 134.551 12.3078 134.702 12.42C134.788 12.4949 134.911 12.5978 134.921 12.7108C134.932 12.965 134.532 13.0377 134.353 13.0575C133.966 13.0877 133.56 13.0333 133.174 13.0165C132.745 12.9857 132.329 12.9596 131.9 12.9289C130.381 12.8237 128.816 12.7659 127.367 13.263C126.661 13.5021 125.96 13.8212 125.45 14.3277C124.925 14.8295 124.609 15.6033 124.943 16.3079C125.249 16.9561 126.094 17.2013 126.746 17.3204C127.411 17.4441 128.076 17.4265 128.754 17.3665C130.031 17.2516 131.359 16.934 132.634 17.257C132.719 17.2848 132.912 17.3168 132.96 17.3637C133.007 17.4105 132.975 17.5095 132.938 17.6227C132.817 17.8965 132.569 18.1285 132.358 18.3415C131.8 18.8952 131.143 19.3695 130.562 19.8999C129.459 20.8708 128.468 22.1755 128.723 23.7469C128.826 24.3915 129.188 25.0111 129.746 25.3661C130.381 25.7772 131.201 25.8577 131.927 25.7033C132.652 25.5489 133.309 25.1688 133.934 24.7465C134.596 24.3052 135.239 23.8263 135.82 23.2959C136.397 22.7797 136.931 22.2025 137.361 21.5599C137.566 21.2669 137.748 20.9034 138.049 20.7041C138.269 20.557 138.557 20.4943 138.756 20.7004C138.983 20.9158 139.113 21.2401 139.242 21.5172C139.357 21.7897 139.467 22.0764 139.549 22.3538C139.741 22.9649 139.881 23.5904 140.074 24.2016C140.468 25.3955 141.384 27.1989 142.941 26.5646C144.352 25.9923 144.307 24.1138 143.951 22.9008C143.301 20.7146 141.528 19.0852 140.77 16.9419C140.597 16.4626 140.495 15.9593 140.487 15.4555C140.389 15.5643 140.286 15.6872 140.202 15.8007C141.228 15.6353 142.24 16.0915 143.073 16.6617C144.034 17.3206 144.822 18.1735 145.783 18.8325C146.598 19.4122 147.529 19.8264 148.538 19.8589C149.467 19.8965 150.602 19.5469 151.063 18.664C151.328 18.1399 151.245 17.533 151.161 16.9731C151.092 16.4649 150.971 15.9711 150.831 15.4868C150.542 14.4995 150.15 13.541 149.663 12.63C148.705 10.8598 147.394 9.35036 145.995 7.92144C145.373 7.27957 144.71 6.67087 143.98 6.1661C143.19 5.60985 142.315 5.16704 141.407 4.82328C141.143 4.72106 140.878 4.61884 140.609 4.53076C140.155 4.38242 139.924 5.08992 140.377 5.23825C141.299 5.53956 142.197 5.91162 143.03 6.43469C143.735 6.86895 144.379 7.393 144.977 7.96437C145.631 8.60137 146.244 9.27154 146.851 9.95587C147.483 10.6636 148.063 11.4328 148.567 12.2401C149.572 13.8688 150.333 15.7625 150.486 17.6923C150.502 17.9323 150.504 18.1677 150.373 18.3756C150.251 18.5552 150.078 18.702 149.899 18.816C149.57 19.006 149.208 19.1067 148.826 19.1228C147.917 19.1699 147.061 18.8118 146.327 18.3211C145.3 17.6249 144.446 16.6875 143.414 16.0054C142.424 15.3372 141.252 14.8912 140.06 15.081C139.91 15.11 139.765 15.2661 139.775 15.4262C139.808 17.7238 141.408 19.5002 142.499 21.3921C143.028 22.317 143.482 23.327 143.46 24.4007C143.45 25.0082 143.223 25.7486 142.555 25.9215C141.938 26.0801 141.505 25.4373 141.252 24.963C140.652 23.8737 140.507 22.589 140.066 21.4423C139.846 20.869 139.506 20.0844 138.883 19.8805C138.094 19.6067 137.409 20.213 136.989 20.8273C136.568 21.4416 136.114 22.0136 135.57 22.525C135.022 23.0505 134.417 23.5103 133.802 23.9514C132.783 24.6677 131.275 25.5372 130.082 24.6769C129.636 24.359 129.439 23.762 129.441 23.23C129.442 22.5566 129.73 21.9618 130.123 21.4324C131.04 20.2129 132.478 19.5086 133.404 18.3078C133.591 18.0714 133.74 17.7599 133.748 17.449C133.755 17.0441 133.489 16.7535 133.111 16.6142C132.506 16.4007 131.794 16.3714 131.158 16.3983C129.871 16.4473 128.59 16.7647 127.307 16.6583C127.001 16.6363 126.708 16.5719 126.425 16.4792C126.17 16.3958 125.844 16.2891 125.682 16.064C125.297 15.515 125.906 14.8998 126.3 14.6058C127.394 13.8044 128.84 13.6039 130.16 13.5971C130.961 13.5929 131.768 13.6688 132.565 13.7259C132.98 13.752 133.391 13.7923 133.81 13.8042C134.197 13.8211 134.603 13.8284 134.965 13.6806C135.289 13.5517 135.556 13.2631 135.639 12.9143C135.717 12.5325 135.545 12.1943 135.27 11.9321C134.701 11.4171 133.973 11.0535 133.254 10.803C132.508 10.5431 131.724 10.3965 130.941 10.297C130.564 10.2518 130.182 10.2208 129.804 10.1757C129.516 10.1442 129.219 10.094 128.968 9.94929C128.448 9.62237 128.613 8.97172 128.974 8.58846C129.218 8.32352 129.528 8.14299 129.838 7.96246C130.129 7.79144 130.42 7.62043 130.726 7.45405C133.052 6.14717 135.676 5.07888 138.424 5.0694C139.084 5.066 139.74 5.12383 140.377 5.23825C140.571 5.27022 140.778 5.21264 140.847 5.00039C140.903 4.8306 140.802 4.56272 140.609 4.53076Z" fill="#019046"/>
<path d="M9.34843 14.3402C10.0633 15.4488 10.5652 16.7353 10.5284 18.0554C10.4764 19.3809 9.82898 20.7256 8.68355 21.3845C7.971 21.806 7.12054 21.9316 6.29305 21.8773C4.51473 21.7601 2.8061 20.81 1.77784 19.3467C1.45756 18.8739 1.18249 18.3338 1.24607 17.7783C1.28896 17.2128 1.74789 16.6566 2.3233 16.6788C2.89871 16.701 3.29178 17.2342 3.76376 17.5507C4.26179 17.8924 4.89006 18.0165 5.48386 17.8946C5.61181 17.867 5.76505 17.8134 5.84549 17.6992C6.01635 17.4502 5.78572 17.1353 5.60259 16.907C5.30454 16.5469 5.08233 16.1087 5.16277 15.6505C5.24321 15.1923 5.72513 14.8 6.14347 14.9632C6.59783 15.131 6.69361 15.6995 6.93114 16.1324C7.10508 16.4327 7.4016 16.6901 7.74638 16.7415C8.09117 16.7928 8.47886 16.6227 8.62289 16.2971C8.74164 15.9975 8.63897 15.655 8.53169 15.3485C8.42442 15.042 8.33706 14.6942 8.4765 14.4046C8.61594 14.1149 9.10707 13.9946 9.24499 14.2904" fill="#EB5F5F"/>
<path d="M18.8631 3.20061C18.8122 3.46349 18.7613 3.72637 18.7104 3.98924C18.6595 4.25212 18.6274 4.56276 18.3921 4.72174C18.1568 4.88071 17.858 4.76671 17.6113 4.71493C17.3152 4.64956 17.0361 4.59953 16.7399 4.53416C15.6227 4.31782 14.5208 4.0844 13.4036 3.86806C13.1407 3.81716 12.8778 3.76625 12.6149 3.71535C12.3359 3.66532 12.0388 3.58374 11.9259 3.29715C11.8138 3.02678 11.9304 2.77663 12.0308 2.52735C12.1312 2.27807 12.2137 1.99724 12.3474 1.76244C12.613 1.26039 13.1454 1.183 13.6677 1.21996C14.2062 1.25604 14.7319 1.35785 15.2585 1.47587C16.4279 1.75444 17.542 2.21482 18.7258 2.4601C19.2353 2.56278 19.0673 3.36849 18.5568 3.2496C17.373 3.00432 16.259 2.54393 15.0896 2.26536C14.5459 2.13201 13.9698 2.00039 13.4186 2.03002C13.3375 2.03438 13.207 2.02514 13.1276 2.06192C13.0492 2.11492 13.0229 2.23014 12.9948 2.31294C12.9378 2.46234 12.8808 2.61173 12.8238 2.76112C12.7949 2.82771 12.7821 2.89343 12.7523 2.94381C12.7378 2.9771 12.7243 3.02661 12.7098 3.05991C12.6962 3.10941 12.6953 3.0932 12.7063 2.99506C12.655 2.94904 12.6038 2.90302 12.5525 2.857C12.7046 2.96264 12.9648 2.9649 13.1287 2.98861C13.3753 3.04039 13.6049 3.07682 13.8516 3.12859C14.3449 3.23214 14.8374 3.31948 15.3145 3.4239C15.7907 3.51211 16.2678 3.61653 16.7441 3.70474C16.9907 3.75651 17.2203 3.79295 17.467 3.84472C17.5822 3.87105 17.7137 3.8965 17.8289 3.92282C17.8784 3.93642 17.9279 3.95001 17.9927 3.94653C18.026 3.961 18.0747 3.95838 18.108 3.97285C18.1899 3.98471 18.1575 3.98645 18.0287 4.00963C17.9826 4.06088 17.9366 4.11213 17.8906 4.16338C17.9502 4.06263 17.9687 3.80149 18.0095 3.65297C18.0468 3.4396 18.1012 3.24158 18.1385 3.02821C18.1763 2.52215 18.9658 2.69108 18.8631 3.20061Z" fill="#F4AF5D"/>
<path d="M18.1735 4.58725C17.9301 5.20191 17.6364 5.78675 17.3597 6.38693C17.2133 6.68746 17.0669 6.98799 16.9196 7.27231C16.7587 7.60613 16.5816 7.94083 16.196 8.02659C15.7788 8.13031 15.3 7.99347 14.8903 7.93419C14.4312 7.86133 13.972 7.78846 13.512 7.69938C13.0852 7.62477 12.6431 7.56724 12.2291 7.42691C12.0473 7.37165 11.88 7.28309 11.7578 7.12707C11.6167 6.92329 11.6208 6.69545 11.6401 6.45053C11.7329 5.45377 11.9075 4.46886 12.1479 3.49667C12.2668 2.98626 13.0725 3.15431 12.9374 3.66559C12.7497 4.40733 12.6114 5.16266 12.5065 5.93246C12.4845 6.12874 12.4617 6.30881 12.4397 6.5051C12.4423 6.55374 12.4134 6.62033 12.4322 6.66809C12.4125 6.60411 12.4143 6.63654 12.4809 6.66548C12.8445 6.776 13.2379 6.83614 13.6152 6.89715C14.0095 6.97351 14.4029 7.03365 14.7972 7.11C15.1582 7.17189 15.5372 7.26533 15.8948 7.26237C16.0253 7.27161 16.0236 7.23918 16.0823 7.12221C16.1419 7.02146 16.2007 6.90449 16.2441 6.8046C16.3761 6.53737 16.508 6.27014 16.64 6.0029C16.9175 5.41893 17.195 4.83496 17.4392 4.23652C17.5261 4.03674 17.799 3.97329 17.9826 4.06098C18.1995 4.16313 18.2441 4.38835 18.1735 4.58725Z" fill="#F4AF5D"/>
<path d="M103.389 3.07673C103.476 4.68089 102.97 6.32946 102.026 7.6196C101.119 8.85226 99.8413 9.73203 98.3873 10.2022C97.6053 10.4449 96.7819 10.5511 95.954 10.5158C95.8178 10.5047 95.6714 10.4201 95.6091 10.2941C94.8934 8.68696 95.8706 7.04059 96.6945 5.69224C97.117 5.01288 97.5918 4.33375 98.2179 3.82829C98.8492 3.30713 99.6108 2.97002 100.377 2.66961C101.28 2.32791 102.204 2.02824 103.149 1.823C103.474 1.74066 103.692 2.0771 103.628 2.3703C103.452 3.09799 102.743 3.43535 102.222 3.88889C101.68 4.35281 101.284 4.95369 100.846 5.52292C100.414 6.07646 99.9137 6.57202 99.356 7.03064C98.8456 7.45278 98.2935 7.84328 97.7778 8.28113C97.2148 8.75544 96.6883 9.27708 96.3079 9.93568C96.1917 10.1238 95.9137 10.1697 95.7309 10.0378C95.5324 9.90062 95.5073 9.66466 95.6287 9.46082C96.3051 8.28998 97.4303 7.49859 98.4824 6.66493C98.9875 6.25848 99.4925 5.85204 99.9246 5.35091C100.409 4.79762 100.816 4.16535 101.311 3.63307C101.585 3.34085 101.89 3.11167 102.2 2.86679C102.479 2.66368 102.779 2.4502 102.864 2.09421C103.031 2.27318 103.182 2.44684 103.344 2.64151C102.588 2.8057 101.848 3.02762 101.129 3.29156C100.431 3.54511 99.7117 3.80905 99.1018 4.21501C98.513 4.61058 98.0649 5.1588 97.6797 5.72828C97.2575 6.35524 96.856 7.02422 96.5541 7.70939C96.2522 8.39456 96.0649 9.20605 96.3813 9.92554C96.2663 9.85163 96.1514 9.77772 96.0364 9.70381C98.7979 9.81627 101.358 8.09342 102.262 5.47711C102.527 4.69219 102.646 3.87515 102.598 3.03635C102.588 2.8057 102.82 2.63907 103.029 2.64005C103.255 2.64634 103.38 2.84608 103.389 3.07673Z" fill="#6B79F3"/>
<path d="M5.07895 3.06602C4.80502 3.27604 4.5311 3.48606 4.25754 3.67227C4.02909 3.85919 3.77845 4.02195 3.57217 4.23302C2.95333 4.86624 2.62391 5.74208 2.29522 6.57031" stroke="#F0BAD6" stroke-miterlimit="10" stroke-linecap="round"/>
</svg>
