<svg width="519" height="121" viewBox="0 0 519 121" fill="none" xmlns="http://www.w3.org/2000/svg">
<path d="M22.1957 39.2532C21.5924 36.1445 23.9943 33.2652 27.1608 33.3011L448.647 38.0797C451.876 38.1163 454.223 41.1568 453.442 44.2892L436.753 111.215C436.203 113.419 434.238 114.975 431.967 115.005L42.0734 120.109C39.6548 120.141 37.5603 118.437 37.0995 116.062L22.1957 39.2532Z" fill="#F0BAD6" fill-opacity="0.2"/>
<path d="M468.456 13.4727C458.025 11.4386 447.5 13.9087 438.006 18.151C435.593 19.1988 433.251 20.3843 430.995 21.6556C428.687 22.91 426.086 24.1831 424.162 26.0221C422.238 27.8612 421.098 30.6453 422.15 33.2283C423.203 35.8113 426.11 36.5901 428.669 36.8529C434.306 37.5486 440.184 38.036 445.127 41.2028C445.7 41.5622 446.255 41.9735 446.811 42.3848C447.123 42.6593 447.575 43.0366 447.612 43.4505C447.652 44.3821 446.185 44.6486 445.529 44.721C444.113 44.8318 442.626 44.6324 441.209 44.5707C439.636 44.458 438.114 44.3624 436.541 44.2497C430.976 43.8643 425.238 43.6523 419.927 45.4743C417.341 46.3505 414.774 47.5199 412.902 49.3759C410.978 51.215 409.82 54.051 411.045 56.6331C412.166 59.0086 415.264 59.9072 417.651 60.3435C420.09 60.7969 422.526 60.7325 425.013 60.5126C429.693 60.0916 434.558 58.9276 439.23 60.1114C439.542 60.2133 440.251 60.3304 440.425 60.5021C440.599 60.6738 440.48 61.0368 440.344 61.4516C439.901 62.4547 438.991 63.305 438.218 64.0855C436.174 66.115 433.766 67.853 431.635 69.7967C427.597 73.3551 423.963 78.1365 424.897 83.8952C425.274 86.2573 426.601 88.5283 428.648 89.8292C430.972 91.3357 433.981 91.6308 436.638 91.0649C439.295 90.499 441.706 89.1061 443.994 87.5584C446.421 85.9411 448.777 84.1861 450.908 82.2424C453.021 80.3506 454.978 78.2352 456.553 75.8803C457.307 74.8065 457.973 73.4744 459.074 72.7439C459.883 72.2048 460.935 71.9751 461.666 72.7306C462.5 73.52 462.974 74.7083 463.446 75.7239C463.867 76.7226 464.271 77.7731 464.571 78.7897C465.276 81.0294 465.791 83.3218 466.496 85.5614C467.939 89.937 471.297 96.546 477.002 94.2215C482.173 92.1241 482.01 85.2397 480.704 80.7944C478.322 72.7826 471.824 66.8111 469.045 58.9566C468.413 57.1998 468.039 55.3553 468.01 53.5091C467.65 53.9078 467.272 54.3584 466.964 54.7742C470.727 54.168 474.434 55.84 477.488 57.9295C481.011 60.3444 483.898 63.4701 487.42 65.885C490.405 68.0094 493.818 69.5275 497.516 69.6465C500.921 69.7842 505.077 68.5031 506.768 65.2675C507.741 63.347 507.434 61.1226 507.127 59.0707C506.874 57.2084 506.431 55.3988 505.919 53.624C504.86 50.0057 503.422 46.4929 501.639 43.1544C498.127 36.667 493.324 31.1354 488.195 25.8987C485.917 23.5464 483.484 21.3157 480.812 19.4658C477.914 17.4273 474.708 15.8045 471.383 14.5447C470.413 14.1701 469.443 13.7955 468.456 13.4727C466.794 12.9291 465.946 15.5219 467.608 16.0655C470.984 17.1697 474.275 18.5332 477.328 20.4501C479.912 22.0416 482.274 23.9621 484.464 26.056C486.862 28.3905 489.106 30.8465 491.333 33.3544C493.647 35.9481 495.772 38.7672 497.622 41.7257C501.304 47.6945 504.094 54.6343 504.655 61.7064C504.713 62.5862 504.718 63.4489 504.239 64.2107C503.794 64.8687 503.158 65.4069 502.504 65.8244C501.298 66.5209 499.97 66.8901 498.571 66.9491C495.237 67.1216 492.102 65.8091 489.413 64.0111C485.648 61.4594 482.517 58.0243 478.735 55.5244C475.109 53.0755 470.814 51.4411 466.447 52.1367C465.894 52.243 465.362 52.8152 465.4 53.4018C465.521 61.8221 471.384 68.3319 475.383 75.2654C477.321 78.6549 478.985 82.3563 478.906 86.2911C478.868 88.5174 478.038 91.2308 475.588 91.8647C473.328 92.4458 471.741 90.0899 470.815 88.3519C468.613 84.3598 468.084 79.6516 466.468 75.4495C465.661 73.3484 464.416 70.4731 462.131 69.7256C459.239 68.7224 456.73 70.9441 455.189 73.1954C453.648 75.4466 451.985 77.5432 449.992 79.4171C447.982 81.3429 445.764 83.0282 443.51 84.6447C439.777 87.2696 434.25 90.456 429.876 87.3035C428.245 86.1385 427.523 83.9507 427.529 82.0007C427.531 79.5331 428.589 77.3533 430.028 75.4132C433.387 70.9438 438.659 68.3627 442.053 63.9622C442.739 63.0958 443.285 61.9541 443.312 60.8151C443.338 59.3309 442.364 58.2661 440.978 57.7555C438.762 56.9732 436.152 56.8659 433.82 56.9642C429.104 57.1438 424.412 58.3069 419.71 57.9171C418.586 57.8366 417.513 57.6005 416.475 57.2608C415.54 56.955 414.345 56.5643 413.753 55.739C412.341 53.7274 414.573 51.4726 416.018 50.3952C420.026 47.4583 425.326 46.7234 430.164 46.6984C433.101 46.6833 436.057 46.9614 438.978 47.1706C440.499 47.2663 442.003 47.4139 443.542 47.4577C444.959 47.5194 446.445 47.5462 447.772 47.0045C448.961 46.5324 449.94 45.4747 450.243 44.1962C450.528 42.797 449.898 41.5578 448.89 40.5967C446.805 38.7093 444.136 37.3771 441.504 36.4588C438.769 35.5066 435.897 34.9692 433.027 34.6044C431.644 34.439 430.243 34.3254 428.86 34.16C427.805 34.0447 426.716 33.8605 425.797 33.3303C423.889 32.1322 424.496 29.7477 425.818 28.3432C426.711 27.3722 427.847 26.7106 428.983 26.049C430.051 25.4223 431.118 24.7956 432.237 24.1858C440.761 19.3964 450.378 15.4814 460.451 15.4467C462.87 15.4342 465.273 15.6461 467.608 16.0655C468.317 16.1826 469.076 15.9716 469.331 15.1938C469.534 14.5715 469.165 13.5898 468.456 13.4727Z" fill="#019046"/>
<path d="M32.4981 64.4363C35.1179 68.4993 36.9572 73.2137 36.8226 78.0517C36.6317 82.9093 34.2592 87.8372 30.0614 90.2521C27.4501 91.7965 24.3334 92.2571 21.3009 92.0578C14.7837 91.6284 8.52204 88.1468 4.75371 82.7838C3.57997 81.0513 2.57189 79.0718 2.8049 77.0361C2.96209 74.9638 4.64396 72.9253 6.7527 73.0066C8.86143 73.088 10.3019 75.0423 12.0316 76.2019C13.8568 77.4542 16.1593 77.909 18.3354 77.4625C18.8043 77.3614 19.3659 77.1648 19.6607 76.7464C20.2868 75.8338 19.4416 74.6798 18.7705 73.8431C17.6782 72.5234 16.8639 70.9173 17.1587 69.2382C17.4534 67.5591 19.2196 66.1214 20.7527 66.7194C22.4178 67.3343 22.7688 69.4177 23.6393 71.0042C24.2767 72.1049 25.3634 73.0483 26.627 73.2364C27.8905 73.4245 29.3113 72.8011 29.8392 71.6077C30.2744 70.5098 29.8981 69.2547 29.5049 68.1316C29.1118 67.0084 28.7917 65.7336 29.3027 64.6722C29.8137 63.6108 31.6135 63.17 32.119 64.2538" fill="#EB5F5F"/>
<path d="M67.3677 23.6146C67.1811 24.578 66.9946 25.5414 66.808 26.5048C66.6215 27.4681 66.5039 28.6066 65.6415 29.1892C64.779 29.7718 63.6841 29.354 62.7801 29.1642C61.6947 28.9247 60.6719 28.7413 59.5865 28.5017C55.4922 27.7089 51.4541 26.8535 47.3597 26.0607C46.3964 25.8741 45.433 25.6876 44.4696 25.501C43.4468 25.3177 42.3582 25.0187 41.9443 23.9684C41.5335 22.9776 41.9609 22.0608 42.3289 21.1473C42.6968 20.2338 42.999 19.2046 43.489 18.3441C44.4626 16.5042 46.4136 16.2206 48.3276 16.356C50.301 16.4883 52.2278 16.8614 54.1577 17.2939C58.4431 18.3148 62.5259 20.002 66.8643 20.9008C68.7316 21.2771 68.1157 24.2298 66.2452 23.7941C61.9068 22.8953 57.824 21.2081 53.5386 20.1872C51.5461 19.6985 49.4347 19.2161 47.4147 19.3247C47.1176 19.3407 46.6391 19.3068 46.3485 19.4416C46.061 19.6358 45.9645 20.0581 45.8617 20.3615C45.6528 20.909 45.4439 21.4565 45.235 22.004C45.1289 22.248 45.0823 22.4889 44.973 22.6735C44.92 22.7955 44.8702 22.977 44.8171 23.099C44.7673 23.2804 44.7641 23.221 44.8044 22.8613C44.6165 22.6927 44.4287 22.524 44.2409 22.3554C44.798 22.7425 45.7518 22.7508 46.3523 22.8377C47.2562 23.0274 48.0976 23.161 49.0016 23.3507C50.8095 23.7302 52.6142 24.0503 54.3627 24.4329C56.108 24.7562 57.8566 25.1389 59.6019 25.4621C60.5058 25.6519 61.3472 25.7854 62.2512 25.9751C62.6734 26.0716 63.1551 26.1649 63.5774 26.2613C63.7588 26.3112 63.9403 26.361 64.1779 26.3482C64.2999 26.4013 64.4782 26.3917 64.6002 26.4447C64.9004 26.4881 64.7816 26.4945 64.3095 26.5795C64.1408 26.7673 63.9722 26.9551 63.8035 27.1429C64.022 26.7737 64.0897 25.8167 64.2392 25.2724C64.376 24.4905 64.5753 23.7648 64.712 22.9828C64.8506 21.1282 67.7439 21.7473 67.3677 23.6146Z" fill="#F4AF5D"/>
<path d="M64.8401 28.696C63.9483 30.9485 62.8718 33.0919 61.858 35.2914C61.3213 36.3928 60.7847 37.4941 60.2449 38.5361C59.6552 39.7594 59.0061 40.986 57.593 41.3003C56.0643 41.6804 54.3094 41.1789 52.8081 40.9617C51.1254 40.6947 49.4427 40.4276 47.7568 40.1012C46.1929 39.8277 44.5728 39.6169 43.0555 39.1026C42.3892 38.9001 41.7759 38.5756 41.3281 38.0038C40.8113 37.257 40.826 36.422 40.8969 35.5245C41.2368 31.8716 41.8769 28.2621 42.7579 24.6993C43.1936 22.8287 46.1463 23.4446 45.6512 25.3183C44.9632 28.0366 44.4565 30.8047 44.0719 33.6258C43.9914 34.3452 43.9078 35.0051 43.8273 35.7244C43.8368 35.9027 43.7308 36.1467 43.7998 36.3218C43.7276 36.0873 43.734 36.2061 43.978 36.3122C45.3106 36.7172 46.7525 36.9376 48.135 37.1612C49.58 37.441 51.0219 37.6614 52.467 37.9413C53.79 38.1681 55.1788 38.5105 56.4891 38.4996C56.9676 38.5335 56.9612 38.4147 57.1765 37.986C57.395 37.6168 57.6103 37.1881 57.7694 36.822C58.253 35.8427 58.7366 34.8633 59.2202 33.884C60.2372 31.7439 61.2543 29.6038 62.1493 27.4106C62.4675 26.6785 63.4679 26.446 64.1406 26.7673C64.9353 27.1417 65.0989 27.9671 64.8401 28.696Z" fill="#F4AF5D"/>
<path d="M303.84 19.4941C304.158 25.3729 302.305 31.4146 298.845 36.1426C295.52 40.66 290.838 43.8841 285.509 45.6072C282.643 46.4965 279.626 46.8858 276.592 46.7564C276.093 46.7157 275.556 46.4059 275.328 45.9438C272.705 40.0542 276.286 34.0207 279.306 29.0793C280.854 26.5896 282.594 24.1008 284.889 22.2484C287.202 20.3384 289.993 19.103 292.802 18.0021C296.112 16.7498 299.497 15.6516 302.958 14.8995C304.151 14.5977 304.951 15.8307 304.716 16.9052C304.07 19.572 301.471 20.8083 299.562 22.4704C297.575 24.1706 296.125 26.3727 294.521 28.4588C292.936 30.4873 291.103 32.3035 289.059 33.9842C287.189 35.5312 285.166 36.9623 283.276 38.5669C281.213 40.3052 279.283 42.2169 277.889 44.6305C277.463 45.3199 276.444 45.4881 275.774 45.0048C275.047 44.502 274.955 43.6372 275.4 42.8902C277.878 38.5994 282.002 35.6991 285.858 32.644C287.709 31.1544 289.56 29.6649 291.143 27.8284C292.92 25.8007 294.409 23.4836 296.224 21.5329C297.228 20.462 298.346 19.6221 299.483 18.7247C300.505 17.9804 301.603 17.198 301.916 15.8934C302.528 16.5493 303.082 17.1857 303.674 17.8991C300.906 18.5008 298.194 19.3141 295.558 20.2814C292.999 21.2106 290.363 22.1779 288.128 23.6656C285.97 25.1153 284.328 27.1244 282.916 29.2114C281.369 31.509 279.898 33.9607 278.791 36.4716C277.685 38.9826 276.999 41.9565 278.158 44.5933C277.737 44.3224 277.315 44.0516 276.894 43.7807C287.014 44.1928 296.398 37.879 299.707 28.2909C300.681 25.4144 301.118 22.4201 300.94 19.3461C300.906 18.5008 301.753 17.8902 302.522 17.8937C303.348 17.9168 303.805 18.6488 303.84 19.4941Z" fill="#6B79F3"/>
<path d="M16.8508 23.1213C15.847 23.8909 14.8431 24.6606 13.8406 25.343C13.0033 26.028 12.0848 26.6245 11.3289 27.398C9.06097 29.7186 7.85371 32.9284 6.64916 35.9636" stroke="#F0BAD6" stroke-width="4" stroke-miterlimit="10" stroke-linecap="round"/>
</svg>
