<svg width="31" height="26" viewBox="0 0 31 26" fill="none" xmlns="http://www.w3.org/2000/svg">
<path d="M29.976 5.98041C28.7773 4.09685 26.2089 3.98269 25.2385 3.98269C24.839 3.98269 24.4965 3.98269 24.1541 3.98269C24.1541 3.35484 24.097 2.72698 24.1541 2.09913C24.2111 1.30004 23.5833 0.67219 22.7842 0.615112C21.9851 0.615112 21.3573 1.18589 21.3002 1.98498C21.3002 2.66991 21.3002 3.29776 21.3573 3.98269C19.9874 4.03977 18.6746 4.15393 17.476 4.26808C15.0216 4.49639 12.8527 4.66762 10.113 4.49639C10.0559 3.75438 10.0559 3.01237 9.94173 2.32744C9.88465 1.52835 9.14264 0.957578 8.40063 1.01466C7.60155 1.07173 7.03077 1.75666 7.08785 2.55575C7.14492 3.06945 7.202 3.64023 7.202 4.15393H7.14492C5.88922 3.98269 4.80474 3.86854 3.72027 3.86854H3.66319C1.72255 3.86854 0.352687 4.95301 0.238532 6.60826C0.0672992 9.17676 0.0672992 11.8023 0.238532 14.4279C0.352687 15.9119 0.466843 17.3959 0.638075 18.88C0.809308 20.1927 1.0947 21.6768 2.06502 22.8754C3.3778 24.5306 5.54675 24.9302 7.25908 25.1585C10.6837 25.558 13.0239 25.4439 15.2499 25.3868C17.3047 25.3297 19.4166 25.2156 22.4417 25.501H22.5559C23.1837 25.558 23.8116 25.6151 24.4965 25.6151C25.7522 25.6151 27.1221 25.3868 28.2066 24.4736C29.1769 23.7316 29.8047 22.4758 30.0901 21.106C30.2614 20.0786 30.2043 19.1083 30.2043 18.195V17.9096C30.0901 15.227 30.2043 12.4873 30.5468 9.86169C30.6609 8.72014 30.8321 7.23612 29.976 5.98041ZM27.6929 9.51922C27.3504 12.316 27.2362 15.1699 27.3504 18.0238V18.3092C27.4075 19.1653 27.4075 19.9074 27.2933 20.6494C27.1792 21.3914 26.8938 21.9621 26.4372 22.3046C25.6381 22.9325 24.2111 22.8183 22.8413 22.7042H22.7271C21.0148 22.5329 19.5878 22.4758 18.2751 22.4758C17.1906 22.4758 16.1632 22.5329 15.1929 22.5329C12.9668 22.59 10.7979 22.7042 7.60155 22.3617C6.34584 22.2475 4.97597 21.9621 4.29104 21.106C3.77734 20.4781 3.60611 19.5078 3.49196 18.5375C3.32072 17.1105 3.14949 15.6836 3.09241 14.3137C2.92118 11.8594 2.97826 9.34799 3.09241 6.89365C3.20657 6.83657 3.3778 6.7795 3.72027 6.7795C4.63351 6.7795 5.60383 6.89365 6.74538 7.06488C6.91661 7.06488 7.08785 7.12196 7.25908 7.12196C7.25908 7.80689 7.25908 8.43475 7.202 9.11968C7.14492 9.91877 7.77278 10.6037 8.57186 10.6037H8.62894C9.37095 10.6037 9.99881 10.0329 10.0559 9.23383C10.113 8.60598 10.113 7.97813 10.113 7.35027C12.9668 7.52151 15.2499 7.35027 17.6472 7.12196C18.9029 7.00781 20.2157 6.89365 21.6426 6.83657C21.7568 7.29319 21.8139 7.74982 21.928 8.14936C22.0993 8.77721 22.67 9.23383 23.2979 9.23383C23.412 9.23383 23.5262 9.23383 23.6404 9.17676C24.3824 8.94845 24.839 8.20644 24.6678 7.40735C24.6107 7.17904 24.5536 6.95073 24.4965 6.7795C24.7248 6.7795 24.8961 6.7795 25.1244 6.7795C25.6381 6.7795 27.1221 6.83657 27.5216 7.46443C27.8641 7.92105 27.7499 8.77721 27.6929 9.51922Z" fill="#019046"/>
</svg>
