<svg width="523" height="426" viewBox="0 0 523 426" fill="none" xmlns="http://www.w3.org/2000/svg">
<rect y="66" width="400" height="360" rx="10" fill="#F0BAD6" fill-opacity="0.2"/>
<path d="M447.448 20.301C431.859 17.261 416.13 20.9527 401.941 27.2926C398.335 28.8586 394.834 30.6303 391.463 32.5303C388.014 34.4049 384.127 36.3076 381.252 39.0561C378.376 41.8046 376.672 45.9654 378.245 49.8256C379.818 53.6859 384.163 54.8497 387.987 55.2426C396.411 56.2823 405.195 57.0106 412.584 61.7435C413.439 62.2806 414.269 62.8953 415.099 63.5099C415.567 63.9201 416.241 64.484 416.297 65.1027C416.357 66.495 414.165 66.8931 413.184 67.0013C411.068 67.167 408.845 66.869 406.727 66.7768C404.376 66.6084 402.103 66.4654 399.752 66.297C391.434 65.721 382.859 65.4042 374.922 68.1272C371.057 69.4366 367.22 71.1843 364.423 73.9581C361.547 76.7066 359.817 80.945 361.649 84.8039C363.323 88.3541 367.953 89.697 371.521 90.3491C375.166 91.0266 378.806 90.9305 382.523 90.6018C389.517 89.9726 396.788 88.233 403.771 90.0022C404.236 90.1545 405.296 90.3296 405.556 90.5861C405.816 90.8426 405.638 91.3851 405.435 92.0051C404.773 93.5043 403.412 94.775 402.258 95.9415C399.203 98.9745 395.604 101.572 392.42 104.477C386.384 109.795 380.954 116.941 382.349 125.547C382.913 129.077 384.896 132.471 387.955 134.415C391.429 136.667 395.925 137.108 399.896 136.262C403.868 135.416 407.47 133.334 410.89 131.022C414.516 128.604 418.038 125.982 421.222 123.077C424.381 120.25 427.305 117.088 429.66 113.569C430.786 111.964 431.781 109.973 433.427 108.881C434.635 108.076 436.208 107.732 437.3 108.861C438.547 110.041 439.255 111.817 439.961 113.335C440.59 114.828 441.194 116.398 441.642 117.917C442.695 121.264 443.465 124.69 444.518 128.037C446.676 134.576 451.694 144.453 460.22 140.979C467.947 137.845 467.704 127.556 465.752 120.913C462.193 108.939 452.481 100.015 448.329 88.2764C447.383 85.6508 446.824 82.8943 446.782 80.1351C446.243 80.731 445.679 81.4044 445.218 82.0257C450.842 81.1199 456.383 83.6186 460.947 86.7413C466.211 90.3504 470.526 95.0217 475.79 98.6308C480.251 101.806 485.352 104.075 490.879 104.252C495.967 104.458 502.178 102.544 504.705 97.7079C506.159 94.8378 505.7 91.5134 505.242 88.4469C504.864 85.6636 504.202 82.9592 503.437 80.3069C501.854 74.8993 499.705 69.6495 497.04 64.6601C491.791 54.9647 484.613 46.6977 476.948 38.8716C473.543 35.3561 469.908 32.0223 465.914 29.2577C461.583 26.2111 456.791 23.7859 451.822 21.9032C450.373 21.3433 448.923 20.7834 447.448 20.301C444.964 19.4886 443.697 23.3635 446.181 24.1759C451.226 25.8262 456.145 27.8639 460.707 30.7287C464.569 33.1072 468.099 35.9773 471.371 39.1067C474.956 42.5955 478.31 46.2661 481.638 50.0141C485.096 53.8904 488.272 58.1034 491.036 62.5248C496.539 71.4452 500.709 81.8167 501.548 92.3859C501.633 93.7007 501.641 94.9901 500.925 96.1285C500.26 97.1119 499.309 97.9163 498.332 98.5403C496.531 99.5811 494.546 100.133 492.455 100.221C487.473 100.479 482.787 98.5173 478.768 95.8302C473.141 92.0167 468.462 86.8831 462.81 83.147C457.391 79.4872 450.972 77.0445 444.445 78.084C443.62 78.243 442.824 79.0981 442.881 79.9747C443.062 92.5588 451.823 102.288 457.8 112.65C460.697 117.715 463.184 123.247 463.065 129.128C463.008 132.455 461.768 136.51 458.107 137.457C454.729 138.326 452.358 134.805 450.974 132.207C447.684 126.241 446.892 119.205 444.478 112.925C443.27 109.785 441.411 105.488 437.995 104.371C433.674 102.871 429.924 106.192 427.621 109.556C425.317 112.921 422.832 116.054 419.854 118.854C416.85 121.733 413.534 124.251 410.166 126.667C404.587 130.59 396.327 135.352 389.791 130.641C387.353 128.899 386.275 125.63 386.283 122.716C386.286 119.028 387.867 115.77 390.018 112.871C395.038 106.191 402.916 102.334 407.989 95.7571C409.014 94.4624 409.83 92.7561 409.871 91.0538C409.909 88.8358 408.453 87.2444 406.383 86.4814C403.07 85.3122 399.17 85.1518 395.685 85.2987C388.637 85.5672 381.624 87.3055 374.597 86.7228C372.918 86.6025 371.315 86.2497 369.762 85.742C368.365 85.285 366.58 84.7011 365.694 83.4677C363.584 80.4613 366.921 77.0915 369.08 75.4815C375.07 71.0922 382.99 69.994 390.22 69.9566C394.61 69.934 399.028 70.3496 403.394 70.6623C405.667 70.8053 407.915 71.0258 410.214 71.0913C412.332 71.1835 414.553 71.2237 416.536 70.414C418.313 69.7085 419.776 68.1278 420.229 66.2171C420.655 64.126 419.714 62.274 418.207 60.8376C415.091 58.0169 411.103 56.0259 407.169 54.6536C403.081 53.2305 398.789 52.4274 394.499 51.8822C392.432 51.635 390.34 51.4653 388.272 51.2181C386.696 51.0457 385.068 50.7704 383.694 49.978C380.843 48.1875 381.751 44.6239 383.726 42.5248C385.06 41.0738 386.758 40.085 388.456 39.0963C390.052 38.1596 391.647 37.223 393.32 36.3117C406.058 29.154 420.431 23.3031 435.485 23.2511C439.1 23.2325 442.691 23.5492 446.181 24.1759C447.241 24.351 448.375 24.0357 448.755 22.8732C449.059 21.9432 448.508 20.4761 447.448 20.301Z" fill="#019046"/>
<path d="M516.853 180.482C515.366 188.498 510.903 196.026 504.706 201.263C498.759 206.26 491.406 209.074 483.673 209.657C479.525 209.92 475.337 209.461 471.296 208.298C470.637 208.08 470.016 207.489 469.859 206.792C468.248 198.01 475.034 191.056 480.708 185.389C483.603 182.543 486.756 179.76 490.448 178.014C494.184 176.197 498.343 175.444 502.483 174.877C507.346 174.27 512.26 173.895 517.164 174.01C518.867 173.993 519.543 175.913 518.876 177.283C517.137 180.662 513.236 181.479 510.125 183.094C506.898 184.735 504.227 187.226 501.389 189.512C498.595 191.726 495.536 193.573 492.238 195.169C489.216 196.642 486.027 197.909 482.96 199.453C479.617 201.12 476.397 203.065 473.734 205.859C472.936 206.648 471.51 206.543 470.766 205.674C469.95 204.76 470.108 203.566 470.951 202.706C475.685 197.738 482.181 195.178 488.366 192.322C491.342 190.92 494.319 189.519 497.048 187.563C500.1 185.412 502.86 182.779 505.938 180.745C507.638 179.63 509.417 178.864 511.24 178.027C512.857 177.358 514.591 176.663 515.437 175.009C516.047 176.091 516.585 177.128 517.15 178.281C513.227 178.189 509.312 178.4 505.449 178.843C501.702 179.26 497.839 179.703 494.346 180.977C490.969 182.225 488.105 184.394 485.524 186.743C482.693 189.332 479.914 192.152 477.607 195.171C475.299 198.191 473.407 201.97 474.108 205.897C473.629 205.395 473.15 204.893 472.672 204.391C486.159 208.243 500.846 202.802 508.425 190.976C510.673 187.421 512.236 183.533 512.998 179.338C513.227 178.189 514.568 177.643 515.6 177.898C516.704 178.199 517.082 179.333 516.853 180.482Z" fill="#FFD670"/>
<path d="M424.268 371.668C427.972 377.412 430.572 384.077 430.382 390.916C430.112 397.783 426.758 404.75 420.823 408.164C417.132 410.347 412.726 410.998 408.439 410.717C399.225 410.109 390.373 405.188 385.046 397.606C383.387 395.157 381.962 392.358 382.291 389.48C382.513 386.551 384.891 383.669 387.872 383.784C390.853 383.899 392.89 386.662 395.335 388.301C397.915 390.072 401.17 390.715 404.246 390.083C404.909 389.94 405.703 389.662 406.12 389.071C407.005 387.781 405.81 386.149 404.862 384.967C403.317 383.101 402.166 380.83 402.583 378.457C403 376.083 405.496 374.051 407.664 374.896C410.018 375.765 410.514 378.711 411.745 380.953C412.646 382.509 414.182 383.843 415.968 384.109C417.754 384.375 419.763 383.494 420.509 381.807C421.124 380.254 420.592 378.48 420.037 376.892C419.481 375.305 419.028 373.502 419.751 372.002C420.473 370.501 423.018 369.878 423.732 371.41" fill="#7FD2F5"/>
<path d="M475.503 285.513C475.239 286.875 474.976 288.237 474.712 289.599C474.448 290.961 474.282 292.57 473.063 293.394C471.843 294.218 470.295 293.627 469.018 293.359C467.483 293.02 466.037 292.761 464.503 292.422C458.715 291.301 453.006 290.092 447.218 288.971C445.856 288.707 444.494 288.444 443.132 288.18C441.686 287.921 440.147 287.498 439.562 286.013C438.981 284.613 439.586 283.317 440.106 282.025C440.626 280.734 441.053 279.279 441.746 278.062C443.122 275.461 445.88 275.06 448.586 275.252C451.376 275.439 454.1 275.966 456.828 276.578C462.886 278.021 468.658 280.406 474.791 281.677C477.431 282.209 476.56 286.383 473.916 285.767C467.783 284.496 462.011 282.111 455.953 280.668C453.136 279.977 450.151 279.295 447.296 279.449C446.876 279.471 446.199 279.423 445.788 279.614C445.382 279.888 445.246 280.485 445.1 280.914C444.805 281.688 444.51 282.462 444.214 283.236C444.064 283.581 443.998 283.922 443.844 284.183C443.769 284.355 443.698 284.612 443.624 284.784C443.553 285.041 443.549 284.957 443.605 284.448C443.34 284.21 443.074 283.971 442.809 283.733C443.596 284.28 444.945 284.292 445.794 284.415C447.072 284.683 448.261 284.872 449.539 285.14C452.095 285.677 454.646 286.129 457.118 286.67C459.585 287.127 462.057 287.668 464.525 288.125C465.802 288.393 466.992 288.582 468.27 288.85C468.867 288.987 469.548 289.118 470.145 289.255C470.401 289.325 470.658 289.396 470.994 289.378C471.166 289.453 471.418 289.439 471.591 289.514C472.015 289.575 471.847 289.584 471.18 289.705C470.941 289.97 470.703 290.236 470.464 290.501C470.773 289.979 470.869 288.626 471.08 287.857C471.274 286.751 471.555 285.725 471.749 284.62C471.945 281.998 476.035 282.873 475.503 285.513Z" fill="#FFB35A"/>
<path d="M471.93 292.697C470.669 295.881 469.147 298.911 467.714 302.021C466.955 303.578 466.197 305.135 465.434 306.608C464.6 308.337 463.682 310.071 461.685 310.515C459.524 311.053 457.043 310.344 454.92 310.037C452.542 309.659 450.163 309.282 447.779 308.82C445.568 308.434 443.278 308.135 441.133 307.408C440.191 307.122 439.324 306.663 438.691 305.855C437.961 304.799 437.981 303.619 438.082 302.35C438.562 297.186 439.467 292.083 440.712 287.047C441.328 284.402 445.503 285.273 444.803 287.922C443.83 291.765 443.114 295.678 442.57 299.666C442.456 300.683 442.338 301.616 442.224 302.633C442.238 302.885 442.088 303.23 442.185 303.477C442.083 303.146 442.092 303.314 442.437 303.464C444.321 304.036 446.36 304.348 448.314 304.664C450.357 305.059 452.395 305.371 454.438 305.767C456.308 306.087 458.272 306.571 460.124 306.556C460.801 306.604 460.792 306.436 461.096 305.83C461.405 305.308 461.709 304.702 461.934 304.184C462.618 302.8 463.301 301.415 463.985 300.031C465.423 297.005 466.861 293.98 468.126 290.88C468.576 289.845 469.99 289.516 470.941 289.97C472.064 290.499 472.296 291.666 471.93 292.697Z" fill="#FFB35A"/>
<path d="M418.733 178.308C423.281 185.905 428.67 192.991 434.733 199.308" stroke="#F0BAD6" stroke-width="4" stroke-miterlimit="10" stroke-linecap="round"/>
<path d="M491.172 349.886C492.316 349.346 493.46 348.807 494.585 348.353C495.548 347.861 496.572 347.473 497.475 346.878C500.184 345.091 502.045 342.211 503.866 339.5" stroke="#F0BAD6" stroke-width="4" stroke-miterlimit="10" stroke-linecap="round"/>
</svg>
