<svg width="22" height="15" viewBox="0 0 22 15" fill="none" xmlns="http://www.w3.org/2000/svg">
<g clip-path="url(#clip0)">
<path d="M1.90217 6.41329C2.11957 6.52198 2.3913 6.63068 2.6087 6.68503C2.98913 6.79372 3.31522 6.84807 3.69565 6.84807C4.07609 6.84807 4.45652 6.79372 4.78261 6.63068C5.65217 6.30459 6.3587 5.59807 6.73913 4.7285C7.88043 4.78285 8.96739 4.78285 10.1087 4.78285C11.25 4.78285 12.3913 4.78285 13.5326 4.7285C15.5435 4.7285 17.5543 4.67416 19.5652 4.7285C19.5652 4.7285 19.5652 4.7285 19.6196 4.7285C20.3261 4.7285 20.9783 4.13068 20.9783 3.42416C20.9783 2.66329 20.3804 2.06546 19.6739 2.01111C17.6087 1.95677 15.5435 1.95677 13.5326 2.01111C11.3587 2.01111 9.13043 2.06546 6.95652 2.01111C6.79348 1.63068 6.57609 1.25024 6.30435 1.03285C5.32609 0.271983 4.34783 0.10894 3.47826 0.000244141C3.36957 0.000244141 3.20652 0.000244141 3.04348 0.000244141H2.98913C2.33696 0.000244141 1.79348 0.163288 1.3587 0.435027C0.543478 0.978505 0 2.06546 0 3.20677C0 3.31546 0 3.36981 0 3.4785C0.0543478 3.85894 0.163043 4.29372 0.326087 4.7285C0.543478 5.16329 0.76087 5.54372 1.03261 5.86981C1.30435 6.0872 1.57609 6.25024 1.90217 6.41329ZM2.5 2.28285C2.66304 2.2285 2.82609 2.17416 3.04348 2.17416C3.15217 2.17416 3.20652 2.17416 3.26087 2.17416C4.02174 2.2285 4.40217 2.39155 4.72826 2.66329C4.78261 2.71764 4.8913 2.82633 4.8913 2.88068C4.94565 3.26111 4.94565 3.36981 4.78261 3.75024C4.67391 4.13068 4.34783 4.45677 3.96739 4.61981C3.91304 4.61981 3.53261 4.67416 3.15217 4.56546C3.04348 4.56546 2.93478 4.51111 2.88043 4.45677C2.77174 4.45677 2.66304 4.34807 2.6087 4.29372C2.5 4.18503 2.44565 4.07633 2.33696 3.85894C2.22826 3.64155 2.17391 3.42416 2.17391 3.26111V3.20677C2.17391 2.82633 2.33696 2.39155 2.5 2.28285Z" fill="black"/>
<path d="M21.0325 9.72863C20.9782 9.56559 20.8695 9.45689 20.8151 9.29385C20.4891 8.75037 20.0543 8.36994 19.5651 8.0982C18.6956 7.66341 17.4456 7.77211 16.5217 8.36994C16.4673 8.42428 16.3586 8.47863 16.3043 8.53298C15.9782 8.75037 15.7065 9.07646 15.4347 9.45689C15.2717 9.67428 15.163 9.89168 15.0543 10.1091C13.1521 10.0547 11.3043 10.1091 9.45645 10.1091C7.1195 10.1634 4.67384 10.1634 2.33689 10.0547C1.57602 10.0547 0.978191 10.5982 0.923843 11.3591C0.869495 12.1199 1.46732 12.7178 2.22819 12.7721C3.53254 12.8265 4.78254 12.8265 6.08689 12.8265C7.22819 12.8265 8.3695 12.8265 9.5108 12.7721C11.3586 12.7721 13.2065 12.7178 15.0543 12.7721C15.2717 13.2612 15.5434 13.8591 16.0869 14.2395C16.7391 14.7286 17.4999 15.0004 18.3151 15.0004C18.5325 15.0004 18.7499 15.0004 18.9673 14.946C19.6195 14.8373 20.163 14.6199 20.8151 14.0221C21.1412 13.7504 21.5217 13.1525 21.576 12.6091C21.7391 11.4678 21.413 10.4895 21.0325 9.72863ZM19.4021 12.1743C19.4021 12.2286 19.2934 12.3917 19.2391 12.3917C18.9673 12.6091 18.8586 12.6634 18.4782 12.7721C18.0978 12.8265 17.6086 12.7178 17.3369 12.5004C17.2282 12.3917 17.0651 12.1743 16.9565 11.7938C16.9021 11.6852 16.9021 11.5765 16.9021 11.5221C16.9021 11.4134 16.9021 11.3047 16.9021 11.196C16.9565 11.0873 17.0108 10.9243 17.1738 10.7612C17.3369 10.5438 17.4456 10.4352 17.6086 10.3265C17.6086 10.3265 17.663 10.2721 17.7173 10.2721C17.9347 10.1634 18.2065 10.0547 18.4238 10.0547C18.5325 10.0547 18.6412 10.0547 18.6956 10.1091C18.8043 10.1634 18.913 10.2721 19.076 10.4895C19.1304 10.5438 19.1847 10.6525 19.1847 10.7069C19.4021 11.3591 19.4565 11.7395 19.4021 12.1743Z" fill="black"/>
</g>
<defs>
<clipPath id="clip0">
<rect width="21.5761" height="15" fill="white" transform="translate(0 0.000244141)"/>
</clipPath>
</defs>
</svg>
