<svg width="32" height="26" viewBox="0 0 32 26" fill="none" xmlns="http://www.w3.org/2000/svg">
<g clip-path="url(#clip0)">
<path d="M31.038 12.7093C27.3146 8.25447 22.9263 4.53107 17.9396 1.60554C17.4741 1.33958 16.6763 0.874154 15.6789 0.807665C14.0832 0.741175 12.8199 1.805 12.155 2.33692C8.03265 5.92735 4.37574 9.9832 1.18425 14.438C0.652333 15.1694 0.785311 16.2332 1.51669 16.7651C1.78265 16.9646 2.1151 17.0976 2.51403 17.0976C3.04595 17.0976 3.51138 16.8316 3.84382 16.4327C4.50872 15.5018 5.2401 14.571 5.90499 13.7066C5.90499 15.5018 5.97148 17.3635 6.03797 18.9593V19.3582C6.10446 20.688 6.17095 22.2837 7.16829 23.6135C8.3651 25.1428 10.2933 25.5417 11.9555 25.7412C13.4848 25.8742 15.014 25.9406 16.5433 25.9406C18.8039 25.9406 20.9981 25.8077 23.1922 25.4752C23.9236 25.3422 25.4529 25.1428 26.3172 23.946C26.7827 23.3476 26.9821 22.6827 27.0486 22.0843C27.5805 19.5577 27.514 16.6986 27.3146 13.8396C27.647 14.2385 27.9795 14.571 28.3119 14.9699C28.9103 15.7013 29.9741 15.7678 30.639 15.1694C31.5034 14.5045 31.6364 13.4406 31.038 12.7093ZM23.9901 21.2864C23.9236 21.5523 23.8571 21.7518 23.8571 21.8183C23.7906 21.8848 23.6577 21.9513 22.8598 22.0843C19.4023 22.6162 15.8784 22.6827 12.421 22.3502C11.4901 22.2837 10.3598 22.0843 9.89435 21.4859C9.49542 21.0204 9.49542 20.0896 9.42893 19.1587V18.8263C9.29595 16.1002 9.16297 12.6428 9.29595 10.0497C9.29595 9.9832 9.29595 9.91671 9.29595 9.85022C10.8917 8.12149 12.6204 6.52575 14.3491 4.93C14.5486 4.66405 15.2135 4.13213 15.546 4.13213C15.7454 4.13213 16.1444 4.39809 16.2773 4.46458C18.9369 6.06032 21.4635 7.85554 23.7241 9.91671C24.1896 13.7066 24.5885 17.9619 23.9901 21.2864Z" fill="black"/>
</g>
<defs>
<clipPath id="clip0">
<rect width="30.5186" height="25" fill="white" transform="translate(0.851807 0.807617)"/>
</clipPath>
</defs>
</svg>
