<svg width="32" height="26" viewBox="0 0 32 26" fill="none" xmlns="http://www.w3.org/2000/svg">
<g clip-path="url(#clip0)">
<path d="M31.0379 12.7093C27.3145 8.25447 22.9262 4.53107 17.9395 1.60554C17.474 1.33958 16.6762 0.874154 15.6788 0.807665C14.0831 0.741175 12.8198 1.805 12.1549 2.33692C8.03254 5.92735 4.37562 9.9832 1.18413 14.438C0.652218 15.1694 0.785197 16.2332 1.51658 16.7651C1.78254 16.9646 2.11498 17.0976 2.51392 17.0976C3.04584 17.0976 3.51126 16.8316 3.84371 16.4327C4.5086 15.5018 5.23998 14.571 5.90488 13.7066C5.90488 15.5018 5.97137 17.3635 6.03786 18.9593V19.3582C6.10435 20.688 6.17084 22.2837 7.16818 23.6135C8.36498 25.1428 10.2932 25.5417 11.9554 25.7412C13.4847 25.8742 15.0139 25.9406 16.5432 25.9406C18.8038 25.9406 20.998 25.8077 23.1921 25.4752C23.9235 25.3422 25.4527 25.1428 26.3171 23.946C26.7825 23.3476 26.982 22.6827 27.0485 22.0843C27.5804 19.5577 27.5139 16.6986 27.3145 13.8396C27.6469 14.2385 27.9793 14.571 28.3118 14.9699C28.9102 15.7013 29.974 15.7678 30.6389 15.1694C31.5033 14.5045 31.6363 13.4406 31.0379 12.7093ZM23.99 21.2864C23.9235 21.5523 23.857 21.7518 23.857 21.8183C23.7905 21.8848 23.6575 21.9513 22.8597 22.0843C19.4022 22.6162 15.8783 22.6827 12.4208 22.3502C11.49 22.2837 10.3597 22.0843 9.89424 21.4859C9.4953 21.0204 9.4953 20.0896 9.42881 19.1587V18.8263C9.29583 16.1002 9.16286 12.6428 9.29584 10.0497C9.29584 9.9832 9.29584 9.91671 9.29584 9.85022C10.8916 8.12149 12.6203 6.52575 14.349 4.93C14.5485 4.66405 15.2134 4.13213 15.5458 4.13213C15.7453 4.13213 16.1442 4.39809 16.2772 4.46458C18.9368 6.06032 21.4634 7.85554 23.724 9.91671C24.1895 13.7066 24.5884 17.9619 23.99 21.2864Z" fill="#019046"/>
</g>
<defs>
<clipPath id="clip0">
<rect width="30.5186" height="25" fill="white" transform="translate(0.851807 0.807617)"/>
</clipPath>
</defs>
</svg>
