<svg width="15" height="21" viewBox="0 0 15 21" fill="none" xmlns="http://www.w3.org/2000/svg">
<path d="M4.43756 21C4.10014 21 3.8302 20.9325 3.56026 20.7301C2.81793 20.2577 2.54799 19.2454 3.02038 18.4356L3.49278 17.6933C3.62775 17.4908 3.8302 17.2884 4.03265 17.1534C4.97744 15.9387 6.0572 14.8589 7.13695 13.8466C8.6891 12.2945 10.2412 10.8098 11.186 9.05523L0.860875 3.25155C0.051058 2.77915 -0.218881 1.76688 0.186027 0.957066C0.658421 0.147249 1.67069 -0.122689 2.48051 0.282219L14.1554 6.82824C14.8977 7.23314 15.1676 8.11045 14.8977 8.92026C13.7505 11.8896 11.5909 14.1166 9.43143 16.2086C8.08174 17.5583 6.79953 18.8405 5.85474 20.2577C5.51732 20.7301 4.97744 21 4.43756 21Z" fill="black"/>
</svg>
