<svg width="28" height="26" viewBox="0 0 28 26" fill="none" xmlns="http://www.w3.org/2000/svg">
<path d="M27.2281 11.5802C26.9261 10.2717 25.7687 9.26525 24.3093 8.91298C24.2589 8.91298 24.2086 8.86265 24.108 8.86265C24.2086 8.76201 24.259 8.71168 24.3596 8.61103C25.2151 7.80584 26.2216 6.69871 26.5739 5.2393C26.9261 3.62892 26.1713 1.56562 24.3596 1.06238C23.6047 0.81076 22.7492 0.911408 21.7931 1.26368C20.1324 1.9179 18.8742 3.07535 17.7671 4.28314C16.9619 3.72957 15.9051 3.5786 14.9489 3.7799C13.8418 4.03152 12.8353 4.78638 11.8288 6.04449C10.8223 7.35292 10.0675 8.86266 9.56424 10.473C9.51391 10.473 9.41327 10.473 9.36294 10.4227C8.30613 10.3221 7.29965 10.8253 6.84673 11.7311C6.49446 12.4357 6.49446 13.1905 6.49446 13.6938L6.64542 20.2863C6.49445 20.3869 6.39381 20.4373 6.24284 20.5379C4.53181 21.4941 2.77045 22.4502 1.16007 23.658C0.606506 24.0606 0.505858 24.8658 0.908453 25.4194C1.16007 25.7716 1.51234 25.9226 1.91494 25.9226C2.16656 25.9226 2.41818 25.822 2.6698 25.671C3.87759 24.7651 5.1357 24.0606 6.44413 23.3057C10.8223 22.9031 15.3515 22.4502 19.7298 20.9908C20.5853 20.6889 21.4911 20.3366 22.0447 19.4811C22.3969 18.9778 22.5479 18.3236 22.4473 17.6694C23.806 17.0655 25.2151 16.2603 26.1713 14.9519C27.1778 13.8448 27.4797 12.6873 27.2281 11.5802ZM24.3596 13.3918C23.4034 14.5996 21.7931 15.2538 20.3337 15.8577C19.8807 16.059 19.5285 16.512 19.5285 17.0152C19.5285 17.4178 19.7298 17.8204 20.082 18.0217C19.8807 18.2733 19.3272 18.4243 19.0755 18.5249C16.7606 19.2798 14.2947 19.783 11.8288 20.085C15.4522 17.6191 17.6665 14.7506 18.371 11.5802C18.522 10.926 18.1194 10.2214 17.4148 10.0704C16.7606 9.91947 16.0561 10.3221 15.9051 11.0266C15.3012 13.5931 13.3889 16.0087 10.1681 18.1223C9.86618 18.3236 9.56424 18.5249 9.2623 18.7262L9.11132 13.5428C9.11132 13.3415 9.11132 13.0396 9.16164 12.8886C9.21197 12.8886 9.31262 12.8886 9.36294 12.8886C9.56424 13.3918 10.0675 13.7441 10.6714 13.6938C11.2753 13.6435 11.7282 13.1905 11.7785 12.637C12.0301 10.775 12.785 9.01363 13.9425 7.5039C14.5463 6.69871 15.0999 6.29611 15.6535 6.14514C16.0561 6.04449 16.5593 6.24579 16.6096 6.49741C16.7103 6.95033 17.1129 7.3026 17.5658 7.40325C18.0187 7.5039 18.4716 7.35292 18.7736 7.00065C19.8807 5.69222 21.1388 4.18249 22.7492 3.5786C23.2525 3.3773 23.5041 3.3773 23.6551 3.42763C24.0073 3.52827 24.259 4.18249 24.108 4.68573C23.957 5.49092 23.2525 6.19546 22.6486 6.79936C22.4976 6.95033 22.3466 7.05098 22.1957 7.20195C21.4408 7.85617 20.6859 8.56071 20.1324 9.51687C19.8807 9.91947 19.8807 10.473 20.1827 10.8756C20.4343 11.2782 20.9375 11.4795 21.3905 11.4292C22.1956 11.3285 23.0008 11.2279 23.7054 11.3789C24.2086 11.4795 24.6615 11.8318 24.7622 12.1841C24.8628 12.486 24.7119 12.9389 24.3596 13.3918Z" fill="black"/>
</svg>
