<svg width="20" height="16" viewBox="0 0 20 16" fill="none" xmlns="http://www.w3.org/2000/svg">
<path d="M19.0451 5.62287C18.7046 4.12483 18.5684 3.06939 18.5344 1.74158C18.5344 1.50326 18.4322 1.26493 18.262 1.0947C17.8875 0.754237 17.8194 0.686144 10.6697 1.33302C9.78445 1.40112 9.00139 1.46921 8.83115 1.46921C8.32046 1.50326 7.9119 1.50326 7.53739 1.50326C6.82242 1.5373 6.24363 1.5373 5.22224 1.6054C4.91582 1.63944 4.57536 1.63944 4.2349 1.63944C3.24755 1.67349 2.15807 1.67349 1.23882 2.08204C-0.327315 2.76297 0.183381 4.73766 0.489798 5.92928C0.557891 6.20165 0.625983 6.47402 0.66003 6.64426C0.728123 7.05281 1.06859 7.35923 1.47714 7.35923C1.61333 7.35923 1.71547 7.35923 1.85165 7.35923C2.39639 7.35923 2.80495 7.29114 3.21351 7.25709C3.55397 8.38062 3.75825 9.36796 3.96253 10.3894C4.20085 11.5469 4.43918 12.7386 4.88178 14.1345C5.01796 14.509 5.22224 15.1899 5.83507 15.5304C6.24363 15.7687 6.65219 15.7687 6.95861 15.7687C6.99265 15.7687 7.06074 15.7687 7.09479 15.7687C7.98 15.7687 9.20566 15.7346 10.3973 15.7346C11.5549 15.7346 12.7465 15.7006 13.5976 15.7006C13.836 15.7006 14.2105 15.7006 14.5509 15.4623C15.0276 15.1558 15.1638 14.6792 15.2659 14.4409C16.1511 11.615 16.3894 9.5382 16.6959 6.6783V6.54212C17.2066 6.54212 17.7173 6.57616 18.2279 6.61021C18.5003 6.61021 18.7386 6.50807 18.9089 6.30379C19.0451 6.16761 19.1132 5.89524 19.0451 5.62287ZM13.5976 13.9983C13.5976 14.0323 13.5976 14.0323 13.5636 14.0664H13.5296C12.6443 14.0664 11.4868 14.1004 10.3292 14.1004C9.13757 14.1004 7.9119 14.1345 7.0267 14.1345C6.92456 14.1345 6.72028 14.1345 6.65219 14.1345C6.5841 14.0664 6.48196 13.7599 6.44791 13.6578C6.03935 12.364 5.80103 11.2746 5.56271 10.117C5.35843 9.16369 5.15415 8.21039 4.84773 7.1209C5.25629 7.08686 5.66484 7.05281 6.03935 7.01877C8.96734 6.78044 11.5208 6.54212 14.619 6.57616C14.7212 6.57616 14.8233 6.57616 14.8914 6.57616C14.6531 9.36796 14.4488 11.3767 13.5976 13.9983ZM14.6871 4.87385C11.5208 4.8398 8.93329 5.07812 5.93721 5.31645C5.42652 5.35049 4.91582 5.38454 4.40513 5.45263C3.89443 5.48668 3.48588 5.55477 3.14541 5.62287C2.80495 5.69096 2.49853 5.725 2.15807 5.75905C2.15807 5.69096 2.12402 5.65691 2.12402 5.58882C2.02189 5.14622 1.71547 3.98864 1.8857 3.71627C2.49853 3.4439 3.38374 3.4439 4.2349 3.40985C4.60941 3.40985 4.98392 3.37581 5.32438 3.37581C6.27768 3.30771 6.82242 3.27367 7.53739 3.27367C7.9119 3.27367 8.32046 3.23962 8.8652 3.23962C9.06948 3.23962 9.68231 3.17153 10.8058 3.06939C12.3039 2.9332 15.4361 2.66083 16.832 2.59274C16.8661 3.47795 16.9682 4.22696 17.1385 4.97598C16.3554 4.90789 15.5042 4.87385 14.6871 4.87385Z" fill="#F4AF5D"/>
</svg>
