<svg width="20" height="16" viewBox="0 0 20 16" fill="none" xmlns="http://www.w3.org/2000/svg">
<path d="M18.82 11.3972C18.2644 10.2861 17.2723 9.57175 16.3992 8.97648L16.2802 8.85742C15.5659 8.38121 14.8912 7.90499 14.4944 7.30972C14.3753 7.1113 14.2563 6.91288 14.1372 6.67477C13.9785 6.35729 13.7801 5.96044 13.5023 5.64297C12.7086 4.61117 11.5577 4.17464 10.6053 3.77779C9.85128 3.46031 8.93853 3.10315 8.02579 2.9841C7.11304 2.86504 6.27966 2.9841 5.56534 3.34126C5.04944 2.9841 4.45417 2.62693 3.66048 2.15072C3.18426 1.83324 2.58899 1.51576 1.91435 1.07923C1.47782 0.761756 0.842865 0.920494 0.565073 1.39671C0.247596 1.83324 0.406334 2.4682 0.88255 2.74599C1.55719 3.18252 2.15246 3.53968 2.62867 3.81747C2.94615 4.0159 3.26363 4.21432 3.50174 4.37306C3.38268 4.57148 3.343 4.80959 3.42237 5.0477L4.13669 8.1431C4.21606 8.42089 4.29543 8.77806 4.53354 9.13522C4.69228 9.41301 4.93038 9.57175 5.08912 9.73049C5.12881 9.77017 5.16849 9.80986 5.24786 9.84954C5.48597 10.0876 5.68439 10.4845 5.88282 10.921C6.08124 11.3179 6.27966 11.7941 6.59714 12.2306C7.31146 13.1831 8.42263 13.7783 10.01 14.1355C10.3672 14.2149 10.764 14.2942 11.1212 14.3339C11.8355 14.453 12.4705 14.572 13.0657 14.7704C13.3038 14.8498 13.5816 14.9689 13.8594 15.1276C14.2563 15.326 14.6531 15.4848 15.1293 15.6435C15.5262 15.7626 15.9627 15.8419 16.3596 15.8419C17.0342 15.8419 17.6295 15.6832 18.1057 15.326C19.3756 14.4133 19.455 12.6275 18.82 11.3972ZM16.9151 13.7386C16.677 13.9371 16.2008 13.9371 15.6849 13.7783C15.3674 13.6593 15.0103 13.5402 14.6928 13.3418C14.3753 13.1831 14.0975 13.064 13.7404 12.9449C12.9467 12.6672 12.153 12.5084 11.399 12.3894C11.0418 12.3497 10.7243 12.2703 10.3672 12.1909C9.25601 11.9528 8.54169 11.556 8.10516 11.0401C7.90673 10.802 7.74799 10.4448 7.58926 10.1273C7.35115 9.61143 7.07336 8.97648 6.55746 8.50026C6.47809 8.42089 6.39872 8.34152 6.31935 8.30184C6.23998 8.22247 6.16061 8.1431 6.12092 8.10342C6.08124 8.02405 6.04155 7.86531 6.00187 7.74625L5.60502 6.00013C6.27966 6.5954 7.03367 7.38909 8.30358 8.81774C8.502 9.01616 8.7798 9.13522 9.0179 9.13522C9.25601 9.13522 9.49412 9.05585 9.69254 8.85742C10.0894 8.50026 10.1291 7.86531 9.73223 7.46846C8.70043 6.35729 7.9861 5.5636 7.35115 5.00801C7.43052 5.00801 7.54957 5.00801 7.62894 5.00801C8.30358 5.08738 9.0179 5.36518 9.73223 5.68265C10.4862 6.00013 11.3196 6.31761 11.7958 6.91288C11.9546 7.1113 12.0736 7.38909 12.2324 7.66688C12.3514 7.94468 12.5102 8.22247 12.7086 8.50026C13.3435 9.45269 14.2563 10.048 15.05 10.6035L15.2087 10.6829C15.923 11.1591 16.6374 11.675 16.9548 12.3497C17.312 12.8259 17.2723 13.5005 16.9151 13.7386Z" fill="#FFD670"/>
</svg>
