<svg width="11" height="19" viewBox="0 0 11 19" fill="none" xmlns="http://www.w3.org/2000/svg">
<path d="M6.85937 18.3485C6.7124 18.3485 6.56544 18.3485 6.45521 18.3485L3.47916 18.275C3.11175 18.275 2.37692 18.2383 1.86254 17.6504C1.60535 17.3565 1.53187 17.0625 1.49513 16.8788C0.870522 14.8213 0.980748 12.6168 1.05423 10.7063C1.09097 9.97145 1.12771 9.01618 1.53187 8.17113C1.67884 7.8772 1.86254 7.58327 2.00951 7.36282C2.08299 7.25259 2.15647 7.14237 2.22995 7.06889C2.70759 6.29732 3.00153 5.3053 3.11175 4.01935C3.18523 3.39475 3.18523 2.77015 3.18523 2.21903C3.18523 2.18228 3.18523 2.14554 3.18523 2.1088C3.18523 1.81487 3.14849 1.26375 3.69961 0.822853C4.25073 0.381956 5.16926 0.418698 5.35297 0.455439C5.42645 0.455439 6.96959 0.565663 7.37375 1.63116C7.48397 1.92509 7.52072 2.21903 7.52072 2.40273L7.74116 5.52575C7.74116 5.70946 7.77791 5.9299 7.81465 6.04013C7.92487 6.29732 8.10858 6.40754 8.43925 6.66473C8.58622 6.77496 8.73318 6.88518 8.88015 7.03215C9.7252 7.76697 10.0191 8.83247 10.2028 9.64078C10.3865 10.3021 10.5703 11.0002 10.6437 11.735C10.7907 13.021 10.607 14.2702 10.3865 15.4459C10.2396 16.144 10.0559 16.9523 9.46801 17.5402C8.76992 18.2015 7.7779 18.3485 6.85937 18.3485ZM3.25871 16.4012C3.29545 16.4012 3.40568 16.4012 3.5159 16.4012L6.49196 16.4747C7.1533 16.5114 7.85139 16.4747 8.18206 16.144C8.40251 15.9236 8.51273 15.4459 8.58621 15.005C8.76992 13.9763 8.91689 12.874 8.80666 11.8453C8.73318 11.2574 8.58621 10.6695 8.40251 10.0082C8.2188 9.27337 8.0351 8.64877 7.63094 8.31809C7.52072 8.20787 7.37375 8.13439 7.26353 8.02416C6.85937 7.73023 6.45521 7.39956 6.12454 6.73821C5.90409 6.33406 5.9041 5.89316 5.86735 5.56249L5.6469 2.43947C5.6469 2.40273 5.6469 2.36599 5.6469 2.32925C5.53668 2.25577 5.31623 2.21903 5.16926 2.21903C5.09578 2.21903 5.05904 2.21903 4.98556 2.21903C4.98556 2.77015 4.98556 3.43149 4.91208 4.12958C4.76511 5.70946 4.3977 6.95866 3.73635 7.98742C3.66287 8.09765 3.58938 8.24461 3.5159 8.35483C3.36894 8.53854 3.25871 8.75899 3.14849 8.9427C2.8913 9.45708 2.8913 10.1184 2.85456 10.743C2.78108 12.6168 2.7076 14.5641 3.22198 16.3277C3.25872 16.3645 3.25871 16.3645 3.25871 16.4012Z" fill="#A778F5"/>
</svg>
