<svg width="16" height="19" viewBox="0 0 16 19" fill="none" xmlns="http://www.w3.org/2000/svg">
<path d="M14.9195 1.90713C14.8382 1.54105 14.6348 0.971591 14.106 0.646188C13.7806 0.442811 13.4145 0.36146 13.1298 0.36146C10.4452 0.158083 8.16741 1.90713 6.7031 3.20874C5.60486 4.22563 4.66933 5.20184 3.85582 6.21872C3.40839 6.7475 3.00164 7.35763 2.75758 8.08979C2.59488 8.49654 2.51353 8.98465 2.47286 9.51343C2.39151 10.815 2.59489 12.0353 2.79826 13.2149C2.79826 13.3369 2.83894 13.4183 2.92029 13.4996L0.520436 16.6316C0.195033 17.0791 0.276384 17.7299 0.723814 18.0553C0.927191 18.1773 1.13057 18.2586 1.33394 18.2586C1.65935 18.2586 1.94408 18.1366 2.14745 17.8519L4.2219 15.1266C4.50663 15.1673 4.79136 15.208 5.11676 15.208C6.25567 15.208 7.35391 14.8419 8.45214 14.4352C9.87578 13.8657 11.5028 13.1742 12.5197 11.7506C12.9671 11.1404 13.2518 10.449 13.4959 9.83883C13.9027 8.82195 14.2687 7.76439 14.5535 6.70683C14.9602 5.32386 15.3263 3.57482 14.9195 1.90713ZM12.601 6.17805C12.3163 7.15426 11.9909 8.17114 11.5842 9.14735C11.3808 9.63546 11.1774 10.1642 10.852 10.571C10.1198 11.5472 8.81823 12.1167 7.67931 12.5641C7.06918 12.8081 6.3777 13.0522 5.72689 13.1335L8.33012 9.71681C8.65552 9.26938 8.57417 8.61857 8.12674 8.29317C7.67931 7.96776 7.0285 8.04911 6.7031 8.49654L4.54731 11.3438C4.46596 10.7744 4.42528 10.2049 4.46595 9.67613C4.50663 9.31005 4.54731 9.02532 4.62866 8.78127C4.79136 8.33384 5.11676 7.88641 5.40149 7.52033C6.13364 6.5848 7.0285 5.64926 8.04539 4.75441C9.91646 3.04604 11.4621 2.31388 12.9264 2.39523C12.9264 2.39523 12.9264 2.39523 12.9264 2.43591C13.2518 3.61549 12.9264 4.99846 12.601 6.17805Z" fill="#7BDF58"/>
</svg>
