<svg width="20" height="19" viewBox="0 0 20 19" fill="none" xmlns="http://www.w3.org/2000/svg">
<g clip-path="url(#clip0)">
<path d="M18.5279 7.47861H18.4341C18.1528 7.43172 17.9183 7.47861 17.6838 7.61929C17.3087 7.71308 16.9804 7.80687 16.6053 7.90065C15.9956 8.08823 15.386 8.22891 14.6357 8.41649C14.4481 8.04133 14.2137 7.71308 13.9792 7.38482C13.8854 7.29103 13.7916 7.19725 13.7447 7.10346L16.2301 4.75877C16.6991 4.33672 16.6991 3.58642 16.277 3.11749C15.855 2.64855 15.1047 2.64855 14.6357 3.07059L11.9159 5.64975C11.5407 5.41528 11.1656 5.22771 10.6966 5.08702C10.978 4.05536 11.1187 2.9768 11.1656 1.89825C11.1187 1.24173 10.6029 0.679008 9.94635 0.679008C9.28983 0.632114 8.774 1.19484 8.72711 1.80446C8.72711 2.83612 8.53953 3.86779 8.25817 4.89945C8.21127 4.89945 8.16438 4.89945 8.11749 4.89945C8.0237 4.89945 7.97681 4.89945 7.88302 4.89945C6.85136 4.99324 5.91348 5.46218 5.25697 6.21248C4.74113 6.8221 4.60045 7.47861 4.45977 8.04133C4.41288 8.13512 4.41288 8.2758 4.36598 8.36959L4.31909 8.60406C4.2253 8.93232 4.13152 9.26057 4.08462 9.68262C4.03773 10.1047 4.13152 10.5267 4.2722 10.9488C3.75637 11.1363 3.33432 11.3239 2.91228 11.5115C2.34955 11.7459 1.78683 12.0273 1.03653 12.2618C0.426906 12.4962 0.0986492 13.1528 0.333118 13.7624C0.520693 14.2313 0.942737 14.5596 1.45857 14.5596C1.59925 14.5596 1.73993 14.5596 1.83372 14.5127C2.63091 14.2313 3.24053 13.95 3.85015 13.6686C4.36598 13.4341 4.88182 13.2465 5.49144 13.0121C5.58522 13.1059 5.67901 13.1997 5.7259 13.2934C5.58522 13.5748 5.44454 13.8562 5.30386 14.1375C5.11628 14.5127 4.92871 14.9347 4.78803 15.2161L4.74113 15.263C4.45977 15.5912 4.36598 16.0602 4.50667 16.4822C4.64735 16.9043 5.06939 17.1856 5.49144 17.2325C5.53833 17.2325 5.53833 17.2325 5.58522 17.2325C6.00727 17.2325 6.42931 16.998 6.61689 16.6698C6.85136 16.2946 7.08582 15.7788 7.36719 15.1692C7.46097 15.0285 7.50787 14.8409 7.60166 14.7003C8.0237 14.8878 8.44574 15.0754 8.86779 15.1692L9.14915 16.4353C9.28983 17.1387 9.43051 17.7484 9.75877 18.1704C9.99324 18.4518 10.3215 18.5924 10.6966 18.5924C10.9311 18.5924 11.2125 18.4987 11.4469 18.358C11.9159 17.9828 12.0097 17.2794 11.6814 16.7636C11.5876 16.576 11.4938 16.154 11.4938 15.9664L11.3532 15.3099C11.9159 15.2161 12.4317 15.0754 12.9007 14.794C13.651 14.372 14.3075 13.6686 14.7764 12.7776C15.0578 12.2149 15.1984 11.6991 15.2453 11.1832C15.2453 10.9956 15.2453 10.8081 15.2453 10.6205C15.9956 10.4798 16.5584 10.2922 17.2149 10.1047C17.6369 9.96398 18.1059 9.87019 18.6217 9.72951C19.1844 9.58883 19.5596 9.073 19.5127 8.51027C19.4658 7.94755 19.0906 7.5724 18.5279 7.47861ZM12.7131 11.7459C12.5255 12.0742 12.2441 12.5431 11.8221 12.7776C11.4938 12.9652 11.0718 13.059 10.556 13.0121C8.96158 12.9652 7.41408 12.0273 6.71067 10.6205C6.5231 10.2922 6.4762 10.0109 6.4762 9.8233C6.4762 9.68262 6.5231 9.49504 6.61689 9.26057C6.66378 9.16679 6.66378 9.073 6.71067 8.97921C6.75757 8.83853 6.80446 8.69785 6.80446 8.55717C6.89825 8.18202 6.99204 7.85376 7.13272 7.66618C7.36719 7.38482 7.74234 7.19725 8.11749 7.19725C8.16438 7.19725 8.16438 7.19725 8.21127 7.19725H8.25817C8.44574 7.19725 8.63332 7.19725 8.82089 7.24414C8.96158 7.24414 9.14915 7.29103 9.28983 7.29103C9.38362 7.29103 9.47741 7.29103 9.57119 7.29103C9.75877 7.29103 9.89945 7.29103 10.0401 7.33793C10.4153 7.38482 10.7904 7.66618 11.2594 7.99444C11.6345 8.2758 12.0097 8.51027 12.291 8.83853C12.5724 9.16679 12.8069 9.58883 12.9475 10.1047C12.9475 10.4329 12.9475 10.7143 12.9475 10.9956C12.9007 11.1832 12.8538 11.4646 12.7131 11.7459Z" fill="#D786F3"/>
</g>
<defs>
<clipPath id="clip0">
<rect width="19.2733" height="17.9134" fill="white" transform="translate(0.286377 0.679199)"/>
</clipPath>
</defs>
</svg>
