<svg width="13" height="19" viewBox="0 0 13 19" fill="none" xmlns="http://www.w3.org/2000/svg">
<path d="M7.28793 18.0931C5.03948 18.0931 2.75087 16.8886 1.62665 14.9212C0.341815 12.7129 0.462268 9.66142 1.9077 6.7304C2.50997 5.48572 3.31299 4.32134 4.0357 3.19711C4.59782 2.35394 5.11978 1.55093 5.60159 0.707755C5.76219 0.426699 6.0834 0.225944 6.40461 0.185793C6.72582 0.145642 7.04702 0.306246 7.28793 0.587302C9.33563 3.23727 10.8614 6.52964 12.1863 9.70157C12.3871 10.2235 12.628 10.7455 12.7083 11.3076C12.9492 12.7932 12.3871 14.1583 11.8651 15.2424C11.6242 15.7644 11.3432 16.2863 10.9015 16.728C10.4599 17.2098 9.81744 17.531 9.05457 17.7719C8.49246 17.9727 7.89019 18.0931 7.28793 18.0931ZM6.56521 3.03651C6.28416 3.47817 6.0031 3.87968 5.72204 4.32134C4.95917 5.44557 4.27661 6.48949 3.7145 7.65387C2.59027 9.94247 2.46982 12.3114 3.39329 13.9174C4.35691 15.6038 6.60536 16.4871 8.49246 15.8848C8.93412 15.7644 9.25533 15.5636 9.49623 15.3227C9.73714 15.0818 9.93789 14.7204 10.0985 14.3591C10.4599 13.5561 10.9015 12.5523 10.7409 11.6288C10.7008 11.2675 10.5402 10.9061 10.3394 10.4644C9.29548 8.09553 8.09095 5.36527 6.56521 3.03651Z" fill="#7FD2F5"/>
</svg>
